<svg width="35" height="33" fill="none" xmlns="http://www.w3.org/2000/svg"><rect x=".698" y=".189" width="34.208" height="32.811" rx="3" fill="#4095CF"/><path d="m17.5 8.792 7.343 4.393c.224.12.376.28.455.485.08.205.119.406.119.604v9.164c0 .316-.119.593-.356.83a1.14 1.14 0 0 1-.832.357H10.771a1.14 1.14 0 0 1-.831-.356 1.14 1.14 0 0 1-.356-.831v-9.164c0-.198.042-.4.128-.604a.988.988 0 0 1 .446-.485L17.5 8.792Zm0 9.223 6.65-3.9-6.65-3.997-6.65 3.998 6.65 3.899Zm0 1.326-6.729-3.959v8.056h13.458v-8.056L17.5 19.341Zm0 4.096h6.73-13.46 6.73Z" fill="#fff"/></svg>