<svg width="35" height="33" viewBox="0 0 35 33" fill="none" xmlns="http://www.w3.org/2000/svg">
<rect x="0.698242" y="0.188721" width="34.2075" height="32.8113" rx="3" fill="#4095CF"/>
<path d="M17.5002 8.79163L24.8429 13.1854C25.0672 13.3041 25.2189 13.4658 25.2981 13.6703C25.3772 13.8748 25.4168 14.076 25.4168 14.2739V23.4375C25.4168 23.7541 25.2981 24.0312 25.0606 24.2687C24.8231 24.5062 24.546 24.625 24.2293 24.625H10.771C10.4543 24.625 10.1772 24.5062 9.93975 24.2687C9.70225 24.0312 9.5835 23.7541 9.5835 23.4375V14.2739C9.5835 14.076 9.62638 13.8748 9.71214 13.6703C9.79791 13.4658 9.94634 13.3041 10.1575 13.1854L17.5002 8.79163ZM17.5002 18.0145L24.1502 14.1156L17.5002 10.1177L10.8502 14.1156L17.5002 18.0145ZM17.5002 19.3406L10.771 15.3823V23.4375H24.2293V15.3823L17.5002 19.3406ZM17.5002 23.4375H24.2293H10.771H17.5002Z" fill="white"/>
</svg>
